<svg width="190" height="186" viewBox="0 0 190 186" fill="none" xmlns="http://www.w3.org/2000/svg">
<rect x="1" y="1" width="188" height="184" stroke="white" stroke-width="2"/>
<path d="M46 154.4C44.1 154.4 42.25 153.967 40.45 153.1C38.65 152.233 37.25 151.1 36.25 149.7V147.4C37.1167 149 38.4667 150.333 40.3 151.4C42.1667 152.467 44.0667 153 46 153C49.2 153 51.6667 152.05 53.4 150.15C55.1333 148.283 56 145.533 56 141.9V138.55C55.1 140.35 53.6833 141.817 51.75 142.95C49.85 144.05 47.85 144.6 45.75 144.6C43.6167 144.6 41.6333 144.067 39.8 143C37.9667 141.933 36.5167 140.5 35.45 138.7C34.3833 136.867 33.85 134.9 33.85 132.8C33.85 130.7 34.3833 128.75 35.45 126.95C36.5167 125.117 37.9667 123.667 39.8 122.6C41.6333 121.533 43.6167 121 45.75 121C47.95 121 49.9833 121.55 51.85 122.65C53.7167 123.75 55.1 125.233 56 127.1V121.5H57.6V141.9C57.6 146 56.6 149.1 54.6 151.2C52.6333 153.333 49.7667 154.4 46 154.4ZM45.85 143.2C47.6833 143.2 49.3833 142.733 50.95 141.8C52.5167 140.833 53.75 139.567 54.65 138C55.5833 136.4 56.05 134.667 56.05 132.8C56.05 130.933 55.5833 129.217 54.65 127.65C53.75 126.05 52.5167 124.783 50.95 123.85C49.3833 122.883 47.6833 122.4 45.85 122.4C43.9833 122.4 42.25 122.883 40.65 123.85C39.0833 124.783 37.8167 126.05 36.85 127.65C35.9167 129.217 35.45 130.933 35.45 132.8C35.45 134.667 35.9167 136.4 36.85 138C37.8167 139.567 39.0833 140.833 40.65 141.8C42.25 142.733 43.9833 143.2 45.85 143.2ZM63.9098 121.5H65.5098V126.7C66.1764 125.067 67.1431 123.783 68.4098 122.85C69.7098 121.917 71.1764 121.45 72.8098 121.45C73.8431 121.45 74.8931 121.667 75.9598 122.1V123.95C74.9931 123.217 73.9098 122.85 72.7098 122.85C71.5098 122.85 70.3431 123.217 69.2098 123.95C68.1098 124.683 67.2098 125.667 66.5098 126.9C65.8431 128.133 65.5098 129.45 65.5098 130.85V144H63.9098V121.5ZM89.1117 144.8C86.8451 144.8 84.7951 144.25 82.9617 143.15C81.1284 142.017 79.6951 140.533 78.6617 138.7C77.6284 136.833 77.1117 134.817 77.1117 132.65C77.1117 130.517 77.6284 128.533 78.6617 126.7C79.7284 124.867 81.1617 123.417 82.9617 122.35C84.7951 121.25 86.8284 120.7 89.0617 120.7C91.2617 120.7 93.2617 121.25 95.0617 122.35C96.8951 123.417 98.3284 124.867 99.3617 126.7C100.395 128.533 100.912 130.517 100.912 132.65C100.912 134.883 100.412 136.933 99.4117 138.8C98.4117 140.633 97.0117 142.1 95.2117 143.2C93.4451 144.267 91.4117 144.8 89.1117 144.8ZM89.1117 143.4C91.0117 143.4 92.7451 142.917 94.3117 141.95C95.8784 140.983 97.0951 139.7 97.9617 138.1C98.8617 136.467 99.3117 134.683 99.3117 132.75C99.3117 130.85 98.8617 129.083 97.9617 127.45C97.0617 125.817 95.8284 124.517 94.2617 123.55C92.6951 122.583 90.9617 122.1 89.0617 122.1C87.1617 122.1 85.4117 122.6 83.8117 123.6C82.2451 124.567 80.9951 125.867 80.0617 127.5C79.1617 129.133 78.7117 130.9 78.7117 132.8C78.7117 134.7 79.1617 136.467 80.0617 138.1C80.9951 139.7 82.2451 140.983 83.8117 141.95C85.4117 142.917 87.1784 143.4 89.1117 143.4ZM115.802 144.55C112.635 144.55 110.185 143.683 108.452 141.95C106.752 140.217 105.902 137.767 105.902 134.6V121.5H107.502V134.6C107.502 137.333 108.219 139.45 109.652 140.95C111.119 142.417 113.169 143.15 115.802 143.15C117.402 143.15 118.869 142.8 120.202 142.1C121.535 141.367 122.585 140.35 123.352 139.05C124.119 137.75 124.502 136.267 124.502 134.6V121.5H126.102V144H124.502V139.8C123.735 141.2 122.585 142.35 121.052 143.25C119.519 144.117 117.769 144.55 115.802 144.55ZM132.416 121.5H134.016V127C134.916 125.2 136.316 123.75 138.216 122.65C140.116 121.517 142.116 120.95 144.216 120.95C146.382 120.95 148.366 121.483 150.166 122.55C151.999 123.617 153.449 125.05 154.516 126.85C155.582 128.65 156.116 130.617 156.116 132.75C156.116 134.883 155.582 136.85 154.516 138.65C153.449 140.45 151.999 141.883 150.166 142.95C148.366 144.017 146.382 144.55 144.216 144.55C142.182 144.55 140.216 144 138.316 142.9C136.449 141.8 135.016 140.35 134.016 138.55V154H132.416V121.5ZM144.316 143.15C146.149 143.15 147.849 142.683 149.416 141.75C150.982 140.783 152.216 139.517 153.116 137.95C154.049 136.35 154.516 134.617 154.516 132.75C154.516 130.917 154.049 129.2 153.116 127.6C152.182 126 150.932 124.733 149.366 123.8C147.799 122.833 146.099 122.35 144.266 122.35C142.432 122.35 140.716 122.833 139.116 123.8C137.549 124.767 136.282 126.05 135.316 127.65C134.382 129.25 133.916 130.967 133.916 132.8C133.916 134.633 134.382 136.35 135.316 137.95C136.282 139.517 137.566 140.783 139.166 141.75C140.766 142.683 142.482 143.15 144.316 143.15Z" fill="white"/>
<path d="M66.62 62.04C66.62 64.2333 66.06 66.1933 64.94 67.92C63.8667 69.6467 62.4667 70.8367 60.74 71.49C66.1533 71.77 70.0967 73.8933 72.57 77.86C73.83 79.8667 74.46 82.34 74.46 85.28C74.46 88.22 73.3167 90.9033 71.03 93.33C68.79 95.7567 65.92 97.4833 62.42 98.51C58.92 99.5367 55.2333 100.05 51.36 100.05C41.7 100.05 34.7933 97.4833 30.64 92.35C27.98 89.0833 26.65 84.6733 26.65 79.12C26.65 78.1867 26.6967 77.2533 26.79 76.32L27.49 76.25C27.8167 84.2767 30.6867 90.0167 36.1 93.47V55.04C36.0533 53.3133 35.2833 52.0533 33.79 51.26C33.1367 50.8867 32.4133 50.7 31.62 50.7H30.71V50H48.49C53.67 50 57.9867 51.05 61.44 53.15C64.8933 55.2033 66.62 58.1667 66.62 62.04ZM48.56 96.76C52.9 96.76 56.2833 95.6167 58.71 93.33C61.1833 91.0433 62.42 88.0333 62.42 84.3C62.42 81.9667 61.9767 80.0067 61.09 78.42C60.25 76.7867 59.13 75.5733 57.73 74.78C55.1633 73.24 52.2467 72.47 48.98 72.47V71.84C50.4733 71.84 51.7333 71.3033 52.76 70.23C54.5333 68.3633 55.42 65.82 55.42 62.6C55.42 59.38 54.6967 57 53.25 55.46C51.85 53.92 49.6333 53.1033 46.6 53.01V96.69C47.2533 96.7367 47.9067 96.76 48.56 96.76ZM134.837 108.73C139.69 108.73 143.61 107.773 146.597 105.86L147.087 106.42C143.073 111.973 138.08 115.053 132.107 115.66C130.847 115.8 129.75 115.87 128.817 115.87C127.93 115.87 126.88 115.823 125.667 115.73C124.5 115.683 122.843 115.38 120.697 114.82C118.55 114.26 116.66 113.677 115.027 113.07C113.393 112.51 111.503 111.74 109.357 110.76C107.21 109.827 105.437 108.987 104.037 108.24C102.637 107.54 100.957 106.677 98.9966 105.65C97.0833 104.67 95.4033 103.83 93.9566 103.13C92.51 102.43 91.11 101.823 89.7566 101.31C85.93 99.77 82.01 99 77.9966 99V98.3H78.9066C80.12 98.3 81.1466 97.88 81.9866 97.04C82.8733 96.2 83.34 95.15 83.3866 93.89V55.11C83.34 53.85 82.8733 52.8 81.9866 51.96C81.1466 51.12 80.12 50.7 78.9066 50.7H77.9966V50H99.2766L99.2066 50.7H98.5066C96.7333 50.7 95.4033 51.4233 94.5166 52.87C94.0966 53.5233 93.8866 54.27 93.8866 55.11V95.71C93.8866 97.25 94.19 98.3233 94.7966 98.93C95.4033 99.49 96.08 99.8867 96.8266 100.12C114.373 105.86 127.043 108.73 134.837 108.73ZM168.63 35.79C169.236 35.79 169.866 35.8133 170.52 35.86V36.56C165.013 36.98 161.046 39.5933 158.62 44.4C157.033 47.5267 156.24 51.4933 156.24 56.3V81.29C156.146 87.17 154.256 91.7667 150.57 95.08C146.883 98.3467 141.61 99.98 134.75 99.98C127.936 99.98 122.5 98.3 118.44 94.94C114.38 91.5333 112.373 87.0067 112.42 81.36V54.13C112.42 53.15 112.046 52.3333 111.3 51.68C110.6 51.0267 109.736 50.7 108.71 50.7H107.59V50H127.75V50.7H126.63C125.183 50.7 124.11 51.26 123.41 52.38C123.083 52.8933 122.92 53.4533 122.92 54.06V80.8C122.92 85.7467 124.203 89.6667 126.77 92.56C129.336 95.4533 132.72 96.9 136.92 96.9C136.966 96.9 136.99 96.9 136.99 96.9C136.99 96.9 137.013 96.9 137.06 96.9C141.213 96.9 144.62 95.5467 147.28 92.84C149.94 90.1333 151.27 86.4233 151.27 81.71V56.3C151.27 50 152.926 45.0067 156.24 41.32C159.6 37.6333 163.73 35.79 168.63 35.79Z" fill="white"/>
</svg>
