<svg width="409" height="77" viewBox="0 0 409 77" fill="none" xmlns="http://www.w3.org/2000/svg">
<rect y="9" width="97" height="58" rx="10" fill="#A50000"/>
<path d="M44.7445 58V48.082H24.9655C24.3385 48.082 24.2815 47.74 24.2815 47.512C24.2815 47.17 24.5665 46.999 24.8515 46.714L41.7805 30.583C43.5475 28.93 45.1435 27.277 45.1435 23.401C45.1435 18.898 42.3505 18.1 39.6145 18.1H8.66346V28.018H26.2195C26.8465 28.018 27.2455 28.075 27.2455 28.474C27.2455 28.93 26.9035 29.272 26.6185 29.5L10.7725 44.605C9.17646 46.144 6.89646 48.766 6.89646 52.756C6.89646 58 11.7985 58 14.0785 58H44.7445ZM48.205 58H61.087V30.526C61.087 28.816 61.885 28.018 63.595 28.018H70.948C74.368 28.018 75.508 28.93 75.508 32.35C75.508 35.77 74.368 36.853 70.948 36.853H69.01C65.59 36.853 63.253 37.936 63.253 41.356V42.211C63.253 44.491 64.678 45.859 65.989 47.626L73.684 58H89.188L77.788 46.087V45.859H79.498C87.478 45.859 88.39 37.366 88.39 31.666C88.39 23.116 86.11 18.1 76.99 18.1H54.475C50.485 18.1 48.205 20.38 48.205 24.37V58Z" fill="white"/>
<circle cx="86.5" cy="18.5" r="7.5" stroke="white" stroke-width="2"/>
<path d="M84.445 16.6059L88.4048 20.5657L87.4884 21.4822L84.264 18.2577L83.472 19.0497L82.7367 18.3143L84.445 16.6059ZM91.3045 16.1726L92.0512 16.9193L89.0588 19.9118L88.4648 19.3178L88.5496 16.348C88.5572 16.0312 88.5346 15.7898 88.4818 15.6239C88.4252 15.4542 88.3422 15.3147 88.2329 15.2053C88.0745 15.0469 87.8991 14.9809 87.7068 15.0073C87.5144 15.0262 87.3146 15.1393 87.1071 15.3467C86.9337 15.5202 86.8111 15.7106 86.7395 15.9181C86.664 16.1217 86.6452 16.3367 86.6829 16.5629L85.5855 16.8005C85.51 16.4159 85.544 16.0237 85.6873 15.6239C85.8268 15.2204 86.0719 14.8433 86.4227 14.4925C86.7168 14.1984 87.0223 13.991 87.3391 13.8703C87.6559 13.7421 87.9632 13.7062 88.2611 13.7628C88.5591 13.8118 88.8268 13.9551 89.0644 14.1927C89.2794 14.4077 89.4359 14.6547 89.5339 14.9338C89.632 15.2128 89.6716 15.6032 89.6527 16.1047L89.6018 17.8753L91.3045 16.1726Z" fill="white"/>
<path d="M136.179 39.708V39.48C140.682 38.625 141.993 35.262 141.993 31.272C141.993 23.292 138.915 20.1 130.935 20.1H106.938V30.018H125.691C127.971 30.018 129.225 30.417 129.225 32.697C129.225 34.977 128.028 35.433 125.748 35.433H107.508V44.097H126.147C128.427 44.097 130.08 44.781 130.08 47.061C130.08 49.341 128.427 50.082 126.147 50.082H106.71V60H132.246C140.796 60 143.076 56.238 143.076 48.828C143.076 43.698 141.822 40.734 136.179 39.708ZM143.66 60H157.34L166.973 33.609C167.144 33.381 167.315 32.64 167.6 32.64C167.885 32.64 168.056 33.381 168.227 33.609L177.86 60H191.54L176.207 23.748C174.554 19.872 170.051 19.644 167.6 19.644C165.149 19.644 160.646 19.872 158.993 23.748L143.66 60ZM192.088 60H205.654L208.789 51.792H223.153L226.288 60H239.854L225.091 24.489C223.267 20.043 219.733 19.644 215.971 19.644C209.815 19.644 208.105 21.525 206.851 24.489L192.088 60ZM215.344 32.013C215.515 31.614 215.8 31.158 215.971 31.158C216.142 31.158 216.427 31.614 216.598 32.013L220.474 43.014H211.468L215.344 32.013ZM260.716 60V30.018H274.966V20.1H233.584V30.018H247.834V60H260.716ZM268.681 60H282.247L285.382 51.792H299.746L302.881 60H316.447L301.684 24.489C299.86 20.043 296.326 19.644 292.564 19.644C286.408 19.644 284.698 21.525 283.444 24.489L268.681 60ZM291.937 32.013C292.108 31.614 292.393 31.158 292.564 31.158C292.735 31.158 293.02 31.614 293.191 32.013L297.067 43.014H288.061L291.937 32.013ZM331.031 60V48.486H347.048C356.168 48.486 358.448 43.356 358.448 34.236C358.448 25.116 356.168 20.1 347.048 20.1H324.419C320.429 20.1 318.149 22.38 318.149 26.37V60H331.031ZM331.031 38.568V32.526C331.031 30.816 331.829 30.018 333.539 30.018H340.094C343.514 30.018 345.224 30.816 345.224 34.236C345.224 37.656 343.514 38.568 340.094 38.568H331.031ZM363.014 20.1V53.73C363.014 57.72 365.294 60 369.284 60H391.913C401.033 60 403.313 55.554 403.313 47.004C403.313 38.454 401.033 33.894 391.913 33.894H375.896V20.1H363.014ZM384.959 43.812C388.379 43.812 390.089 44.154 390.089 47.004C390.089 49.854 388.379 50.082 384.959 50.082H378.404C376.694 50.082 375.896 49.284 375.896 47.574V43.812H384.959Z" fill="#434242"/>
</svg>
